/* XPM */
static char * _xpm[] = {
"72 108 2 1",
"  c #77cc88",
"* c #000044",
"                                                                        ",
"                                                                        ",
"                                                                        ",
"                                                                        ",
"        **                                                    *****     ",
"     * *                                                     *     *    ",
"     * *                                                     *     *    ",
"     * *                                                     *     *    ",
"      ****                                                    *   *     ",
"                                                                        ",
"        **                                                   *******    ",
"     * *                                                     *     *    ",
"     * *                                                     *     *    ",
"     * *                                                      *   *     ",
"      ****                                                     ***      ",
"                                                                        ",
"        **                                                    *****     ",
"     * *                                                     *     *    ",
"     * *                                                     *     *    ",
"     * *                                                     *     *    ",
"      ****                                                    *   *     ",
"                                                                        ",
"        **                                                              ",
"     * *                                                                ",
"     * *                                                                ",
"     * *                                                                ",
"      ****                                                              ",
"                                                                        ",
"        **                                                              ",
"     * *                                                     *     *    ",
"     * *                                                     *******    ",
"     * *                                                     *     *    ",
"      ****                                                              ",
"                                                                        ",
"                                                             *****      ",
"                                                                *       ",
"                                                                 *      ",
"                                                                 *      ",
"                                                             ****       ",
"                                                                        ",
"     *******                                                            ",
"     *  *  *                                                 *   *      ",
"     *  *  *                                                 ***** *    ",
"     *  *  *                                                 *          ",
"      ** **                                                             ",
"                                                                        ",
"      ****                                                       *      ",
"     *                                                        ******    ",
"     *                                                       *   *      ",
"      *                                                      *          ",
"     *****                                                    *         ",
"                                                                        ",
"         *                                                              ",
"      ******                                                            ",
"     *   *                                                              ",
"     *                                                                  ",
"      *                                                                 ",
"                                                                        ",
"         *                                                              ",
"      ******                                                            ",
"     *   *                                                              ",
"     *                                                                  ",
"      *                                                                 ",
"                                                                        ",
"      ***                                                               ",
"     *   *                                                              ",
"     *   *                                                              ",
"     *   *                                                              ",
"      ***                                                               ",
"                                                                        ",
"     *****                                                              ",
"        *                                                               ",
"         *                                                              ",
"         *                                                              ",
"     ****                                                               ",
"                                                                        ",
"                                                                        ",
"                                                                        ",
"                                                                        ",
"                                                                        ",
"                                                                        ",
"                                                                        ",
"      *****                                                             ",
"     * *   *                                                            ",
"     *  *  *                                                            ",
"     *   * *                                                            ",
"      *****                                                             ",
"                                                                        ",
"                                                                        ",
"                                                                        ",
"                                                                        ",
"                                                                        ",
"                                                                        ",
"                                                                        ",
"                                                                        ",
"                                                                        ",
"                                                                        ",
"                                                                        ",
"                                                                        ",
"                                                                        ",
"                                                                        ",
"                                                                        ",
"                                                                        ",
"                                                                        ",
"                                                                        ",
"                                                                        ",
"                                                                        ",
"                                                                        ",
};
